<svg width="16" height="16" viewBox="0 0 16 16" fill="none" xmlns="http://www.w3.org/2000/svg">
<g clip-path="url(#clip0_23_1170)">
<path d="M0 0V16H16V0H0ZM5.7625 11.3469H4.20312V6.35625H5.7625V11.3469ZM4.94063 5.73125H4.92812C4.3625 5.73125 3.99688 5.35 3.99688 4.86563C3.99688 4.37188 4.375 4 4.95 4C5.525 4 5.87813 4.37188 5.89062 4.86563C5.89375 5.34688 5.52813 5.73125 4.94063 5.73125ZM12 11.3469H10.2312V8.76562C10.2312 8.09062 9.95625 7.62813 9.34688 7.62813C8.88125 7.62813 8.62187 7.94063 8.50313 8.24063C8.45938 8.34688 8.46562 8.49687 8.46562 8.65V11.3469H6.7125C6.7125 11.3469 6.73438 6.77187 6.7125 6.35625H8.46562V7.14062C8.56875 6.79688 9.12813 6.30937 10.0219 6.30937C11.1313 6.30937 12 7.02812 12 8.57187V11.3469Z" fill="white" stroke="white" stroke-width="0.125"/>
</g>
<defs>
<clipPath id="clip0_23_1170">
<rect width="16" height="16" fill="white"/>
</clipPath>
</defs>
</svg>
